<svg xmlns="http://www.w3.org/2000/svg" width="1280" height="800" viewBox="0 0 1280 800" role="img" aria-label="Mapa de casos com hotspots e histograma de febre amarela">
<defs>
  <linearGradient id="bg" x1="0" y1="0" x2="1" y2="1">
    <stop offset="0" stop-color="#121214"/><stop offset="0.55" stop-color="#0f0f11"/><stop offset="1" stop-color="#161618"/>
  </linearGradient>
  <linearGradient id="amber" x1="0" y1="1" x2="0" y2="0">
    <stop offset="0" stop-color="#E0A458" stop-opacity="0.35"/><stop offset="1" stop-color="#ecb978"/>
  </linearGradient>
  <radialGradient id="glow" cx="0.5" cy="0.5" r="0.5">
    <stop offset="0" stop-color="#E0A458" stop-opacity="0.20"/><stop offset="0.6" stop-color="#E0A458" stop-opacity="0.05"/><stop offset="1" stop-color="#E0A458" stop-opacity="0"/>
  </radialGradient>
  <radialGradient id="vig" cx="0.5" cy="0.5" r="0.72">
    <stop offset="0.55" stop-color="#000" stop-opacity="0"/><stop offset="1" stop-color="#000" stop-opacity="0.45"/>
  </radialGradient>
</defs>
<rect width="1280" height="800" fill="url(#bg)"/><g stroke="#fff" stroke-width="1" opacity="0.045"><line x1="0" y1="0" x2="0" y2="800"/><line x1="64" y1="0" x2="64" y2="800"/><line x1="128" y1="0" x2="128" y2="800"/><line x1="192" y1="0" x2="192" y2="800"/><line x1="256" y1="0" x2="256" y2="800"/><line x1="320" y1="0" x2="320" y2="800"/><line x1="384" y1="0" x2="384" y2="800"/><line x1="448" y1="0" x2="448" y2="800"/><line x1="512" y1="0" x2="512" y2="800"/><line x1="576" y1="0" x2="576" y2="800"/><line x1="640" y1="0" x2="640" y2="800"/><line x1="704" y1="0" x2="704" y2="800"/><line x1="768" y1="0" x2="768" y2="800"/><line x1="832" y1="0" x2="832" y2="800"/><line x1="896" y1="0" x2="896" y2="800"/><line x1="960" y1="0" x2="960" y2="800"/><line x1="1024" y1="0" x2="1024" y2="800"/><line x1="1088" y1="0" x2="1088" y2="800"/><line x1="1152" y1="0" x2="1152" y2="800"/><line x1="1216" y1="0" x2="1216" y2="800"/><line x1="1280" y1="0" x2="1280" y2="800"/><line x1="0" y1="0" x2="1280" y2="0"/><line x1="0" y1="64" x2="1280" y2="64"/><line x1="0" y1="128" x2="1280" y2="128"/><line x1="0" y1="192" x2="1280" y2="192"/><line x1="0" y1="256" x2="1280" y2="256"/><line x1="0" y1="320" x2="1280" y2="320"/><line x1="0" y1="384" x2="1280" y2="384"/><line x1="0" y1="448" x2="1280" y2="448"/><line x1="0" y1="512" x2="1280" y2="512"/><line x1="0" y1="576" x2="1280" y2="576"/><line x1="0" y1="640" x2="1280" y2="640"/><line x1="0" y1="704" x2="1280" y2="704"/><line x1="0" y1="768" x2="1280" y2="768"/></g>
<circle cx="500" cy="320" r="300" fill="url(#glow)"/><circle cx="820" cy="430" r="220" fill="url(#glow)"/><polygon points="380,140 640,120 760,200 840,360 760,520 560,600 380,560 300,400 330,250" fill="#fff" fill-opacity="0.02" stroke="#fff" stroke-opacity="0.10" stroke-width="1.5"/><g><circle cx="473.5" cy="365.0" r="2.6" fill="#E0A458" fill-opacity="0.71"/><circle cx="445.2" cy="372.4" r="2.6" fill="#E0A458" fill-opacity="0.7"/><circle cx="523.7" cy="324.8" r="2.7" fill="#E0A458" fill-opacity="0.67"/><circle cx="505.0" cy="311.9" r="2.7" fill="#E0A458" fill-opacity="0.59"/><circle cx="439.5" cy="267.0" r="3.3" fill="#E0A458" fill-opacity="0.89"/><circle cx="528.4" cy="327.3" r="4.2" fill="#E0A458" fill-opacity="0.62"/><circle cx="527.4" cy="349.7" r="4.1" fill="#E0A458" fill-opacity="0.57"/><circle cx="464.7" cy="303.1" r="3.8" fill="#E0A458" fill-opacity="0.65"/><circle cx="478.4" cy="314.3" r="2.9" fill="#E0A458" fill-opacity="0.77"/><circle cx="491.5" cy="323.5" r="3.1" fill="#E0A458" fill-opacity="0.73"/><circle cx="463.3" cy="329.4" r="3.9" fill="#E0A458" fill-opacity="0.6"/><circle cx="394.3" cy="274.6" r="3.6" fill="#E0A458" fill-opacity="0.85"/><circle cx="494.0" cy="281.0" r="2.7" fill="#E0A458" fill-opacity="0.67"/><circle cx="508.5" cy="158.3" r="2.8" fill="#E0A458" fill-opacity="0.7"/><circle cx="556.8" cy="332.1" r="3.6" fill="#E0A458" fill-opacity="0.85"/><circle cx="459.6" cy="401.2" r="3.9" fill="#E0A458" fill-opacity="0.74"/><circle cx="386.9" cy="267.3" r="4.4" fill="#E0A458" fill-opacity="0.69"/><circle cx="481.3" cy="293.4" r="2.6" fill="#E0A458" fill-opacity="0.78"/><circle cx="421.8" cy="231.8" r="3.1" fill="#E0A458" fill-opacity="0.65"/><circle cx="497.2" cy="315.8" r="2.5" fill="#E0A458" fill-opacity="0.68"/><circle cx="508.9" cy="333.4" r="4.0" fill="#E0A458" fill-opacity="0.55"/><circle cx="500.2" cy="333.9" r="3.3" fill="#E0A458" fill-opacity="0.85"/><circle cx="773.4" cy="454.6" r="4.3" fill="#E0A458" fill-opacity="0.83"/><circle cx="718.2" cy="402.2" r="3.1" fill="#E0A458" fill-opacity="0.67"/><circle cx="617.0" cy="506.7" r="2.8" fill="#E0A458" fill-opacity="0.57"/><circle cx="713.2" cy="518.9" r="3.0" fill="#E0A458" fill-opacity="0.69"/><circle cx="699.6" cy="419.8" r="3.3" fill="#E0A458" fill-opacity="0.65"/><circle cx="694.2" cy="417.8" r="4.4" fill="#E0A458" fill-opacity="0.78"/><circle cx="622.7" cy="413.6" r="2.6" fill="#E0A458" fill-opacity="0.86"/><circle cx="713.3" cy="360.9" r="4.2" fill="#E0A458" fill-opacity="0.82"/><circle cx="679.4" cy="434.0" r="3.8" fill="#E0A458" fill-opacity="0.52"/><circle cx="717.7" cy="426.8" r="2.9" fill="#E0A458" fill-opacity="0.56"/><circle cx="699.2" cy="421.0" r="2.8" fill="#E0A458" fill-opacity="0.54"/><circle cx="699.7" cy="420.3" r="2.6" fill="#E0A458" fill-opacity="0.85"/><circle cx="676.1" cy="402.3" r="3.2" fill="#E0A458" fill-opacity="0.65"/><circle cx="730.7" cy="445.4" r="4.2" fill="#E0A458" fill-opacity="0.9"/><circle cx="671.2" cy="425.3" r="2.7" fill="#E0A458" fill-opacity="0.64"/><circle cx="699.7" cy="422.5" r="4.2" fill="#E0A458" fill-opacity="0.56"/><circle cx="780.9" cy="430.1" r="2.8" fill="#E0A458" fill-opacity="0.72"/><circle cx="725.6" cy="423.7" r="3.6" fill="#E0A458" fill-opacity="0.89"/><circle cx="711.8" cy="408.4" r="3.2" fill="#E0A458" fill-opacity="0.57"/><circle cx="707.1" cy="376.7" r="3.6" fill="#E0A458" fill-opacity="0.81"/><circle cx="689.7" cy="436.1" r="4.5" fill="#E0A458" fill-opacity="0.84"/><circle cx="743.5" cy="319.4" r="4.1" fill="#E0A458" fill-opacity="0.8"/><circle cx="427.9" cy="372.6" r="1.8" fill="#fff" fill-opacity="0.13"/><circle cx="324.5" cy="270.1" r="1.7" fill="#fff" fill-opacity="0.24"/><circle cx="807.4" cy="342.3" r="2.3" fill="#fff" fill-opacity="0.3"/><circle cx="806.6" cy="306.8" r="1.6" fill="#fff" fill-opacity="0.16"/><circle cx="412.3" cy="237.9" r="2.0" fill="#fff" fill-opacity="0.28"/><circle cx="747.0" cy="356.2" r="2.1" fill="#fff" fill-opacity="0.26"/><circle cx="354.1" cy="434.1" r="2.3" fill="#fff" fill-opacity="0.26"/><circle cx="700.1" cy="355.6" r="1.6" fill="#fff" fill-opacity="0.26"/><circle cx="482.9" cy="494.4" r="2.4" fill="#fff" fill-opacity="0.19"/><circle cx="518.7" cy="557.1" r="2.1" fill="#fff" fill-opacity="0.15"/><circle cx="376.1" cy="215.0" r="2.3" fill="#fff" fill-opacity="0.27"/><circle cx="386.0" cy="505.4" r="2.4" fill="#fff" fill-opacity="0.24"/><circle cx="492.2" cy="385.9" r="1.5" fill="#fff" fill-opacity="0.12"/><circle cx="814.9" cy="429.4" r="1.9" fill="#fff" fill-opacity="0.29"/><circle cx="535.6" cy="524.8" r="2.2" fill="#fff" fill-opacity="0.16"/><circle cx="441.0" cy="276.0" r="1.6" fill="#fff" fill-opacity="0.23"/><circle cx="444.9" cy="330.2" r="1.5" fill="#fff" fill-opacity="0.28"/><circle cx="494.0" cy="347.0" r="2.0" fill="#fff" fill-opacity="0.28"/><circle cx="528.7" cy="544.6" r="1.9" fill="#fff" fill-opacity="0.22"/><circle cx="582.2" cy="158.0" r="1.8" fill="#fff" fill-opacity="0.15"/><circle cx="312.0" cy="493.6" r="1.6" fill="#fff" fill-opacity="0.21"/><circle cx="687.1" cy="389.3" r="1.7" fill="#fff" fill-opacity="0.21"/><circle cx="598.8" cy="487.2" r="1.5" fill="#fff" fill-opacity="0.22"/><circle cx="439.2" cy="269.1" r="2.2" fill="#fff" fill-opacity="0.21"/><circle cx="602.1" cy="476.8" r="2.3" fill="#fff" fill-opacity="0.2"/><circle cx="628.5" cy="367.4" r="1.9" fill="#fff" fill-opacity="0.24"/><circle cx="545.2" cy="379.3" r="1.9" fill="#fff" fill-opacity="0.29"/><circle cx="673.6" cy="526.9" r="2.3" fill="#fff" fill-opacity="0.17"/><circle cx="600.9" cy="555.6" r="2.2" fill="#fff" fill-opacity="0.14"/><circle cx="373.2" cy="340.1" r="1.5" fill="#fff" fill-opacity="0.16"/><circle cx="348.0" cy="437.9" r="2.2" fill="#fff" fill-opacity="0.28"/><circle cx="390.3" cy="457.9" r="2.1" fill="#fff" fill-opacity="0.15"/><circle cx="769.1" cy="566.0" r="1.6" fill="#fff" fill-opacity="0.29"/><circle cx="517.1" cy="359.5" r="2.4" fill="#fff" fill-opacity="0.27"/><circle cx="394.0" cy="335.6" r="1.9" fill="#fff" fill-opacity="0.18"/></g><rect x="170" y="590" width="70" height="90" rx="4" fill="#E0A458" opacity="0.55"/><rect x="260" y="540" width="70" height="140" rx="4" fill="#E0A458" opacity="0.55"/><rect x="350" y="480" width="70" height="200" rx="4" fill="#E0A458" opacity="0.55"/><rect x="440" y="520" width="70" height="160" rx="4" fill="#E0A458" opacity="0.55"/><rect x="530" y="570" width="70" height="110" rx="4" fill="#E0A458" opacity="0.55"/><rect x="620" y="620" width="70" height="60" rx="4" fill="#E0A458" opacity="0.55"/><line x1="150" y1="680" x2="720" y2="680" stroke="#fff" stroke-opacity="0.16" stroke-width="2"/>
<rect width="1280" height="800" fill="url(#vig)"/>
</svg>