<svg xmlns="http://www.w3.org/2000/svg" width="1280" height="800" viewBox="0 0 1280 800" role="img" aria-label="Relógio e linha do tempo de registros de horas">
<defs>
  <linearGradient id="bg" x1="0" y1="0" x2="1" y2="1">
    <stop offset="0" stop-color="#121214"/><stop offset="0.55" stop-color="#0f0f11"/><stop offset="1" stop-color="#161618"/>
  </linearGradient>
  <linearGradient id="amber" x1="0" y1="1" x2="0" y2="0">
    <stop offset="0" stop-color="#E0A458" stop-opacity="0.35"/><stop offset="1" stop-color="#ecb978"/>
  </linearGradient>
  <radialGradient id="glow" cx="0.5" cy="0.5" r="0.5">
    <stop offset="0" stop-color="#E0A458" stop-opacity="0.20"/><stop offset="0.6" stop-color="#E0A458" stop-opacity="0.05"/><stop offset="1" stop-color="#E0A458" stop-opacity="0"/>
  </radialGradient>
  <radialGradient id="vig" cx="0.5" cy="0.5" r="0.72">
    <stop offset="0.55" stop-color="#000" stop-opacity="0"/><stop offset="1" stop-color="#000" stop-opacity="0.45"/>
  </radialGradient>
</defs>
<rect width="1280" height="800" fill="url(#bg)"/><g stroke="#fff" stroke-width="1" opacity="0.045"><line x1="0" y1="0" x2="0" y2="800"/><line x1="64" y1="0" x2="64" y2="800"/><line x1="128" y1="0" x2="128" y2="800"/><line x1="192" y1="0" x2="192" y2="800"/><line x1="256" y1="0" x2="256" y2="800"/><line x1="320" y1="0" x2="320" y2="800"/><line x1="384" y1="0" x2="384" y2="800"/><line x1="448" y1="0" x2="448" y2="800"/><line x1="512" y1="0" x2="512" y2="800"/><line x1="576" y1="0" x2="576" y2="800"/><line x1="640" y1="0" x2="640" y2="800"/><line x1="704" y1="0" x2="704" y2="800"/><line x1="768" y1="0" x2="768" y2="800"/><line x1="832" y1="0" x2="832" y2="800"/><line x1="896" y1="0" x2="896" y2="800"/><line x1="960" y1="0" x2="960" y2="800"/><line x1="1024" y1="0" x2="1024" y2="800"/><line x1="1088" y1="0" x2="1088" y2="800"/><line x1="1152" y1="0" x2="1152" y2="800"/><line x1="1216" y1="0" x2="1216" y2="800"/><line x1="1280" y1="0" x2="1280" y2="800"/><line x1="0" y1="0" x2="1280" y2="0"/><line x1="0" y1="64" x2="1280" y2="64"/><line x1="0" y1="128" x2="1280" y2="128"/><line x1="0" y1="192" x2="1280" y2="192"/><line x1="0" y1="256" x2="1280" y2="256"/><line x1="0" y1="320" x2="1280" y2="320"/><line x1="0" y1="384" x2="1280" y2="384"/><line x1="0" y1="448" x2="1280" y2="448"/><line x1="0" y1="512" x2="1280" y2="512"/><line x1="0" y1="576" x2="1280" y2="576"/><line x1="0" y1="640" x2="1280" y2="640"/><line x1="0" y1="704" x2="1280" y2="704"/><line x1="0" y1="768" x2="1280" y2="768"/></g>
<circle cx="900" cy="340" r="300" fill="url(#glow)"/><circle cx="900" cy="340" r="150" fill="none" stroke="#fff" stroke-opacity="0.12" stroke-width="14"/><circle cx="900" cy="340" r="150" fill="none" stroke="#E0A458" stroke-width="14" stroke-linecap="round" stroke-dasharray="659.7344572538565 942.4777960769379" transform="rotate(-90 900 340)"/><line x1="900.0" y1="216.0" x2="900.0" y2="204.0" stroke="#fff" stroke-opacity="0.25" stroke-width="3"/><line x1="962.0" y1="232.6" x2="968.0" y2="222.2" stroke="#fff" stroke-opacity="0.25" stroke-width="3"/><line x1="1007.4" y1="278.0" x2="1017.8" y2="272.0" stroke="#fff" stroke-opacity="0.25" stroke-width="3"/><line x1="1024.0" y1="340.0" x2="1036.0" y2="340.0" stroke="#fff" stroke-opacity="0.25" stroke-width="3"/><line x1="1007.4" y1="402.0" x2="1017.8" y2="408.0" stroke="#fff" stroke-opacity="0.25" stroke-width="3"/><line x1="962.0" y1="447.4" x2="968.0" y2="457.8" stroke="#fff" stroke-opacity="0.25" stroke-width="3"/><line x1="900.0" y1="464.0" x2="900.0" y2="476.0" stroke="#fff" stroke-opacity="0.25" stroke-width="3"/><line x1="838.0" y1="447.4" x2="832.0" y2="457.8" stroke="#fff" stroke-opacity="0.25" stroke-width="3"/><line x1="792.6" y1="402.0" x2="782.2" y2="408.0" stroke="#fff" stroke-opacity="0.25" stroke-width="3"/><line x1="776.0" y1="340.0" x2="764.0" y2="340.0" stroke="#fff" stroke-opacity="0.25" stroke-width="3"/><line x1="792.6" y1="278.0" x2="782.2" y2="272.0" stroke="#fff" stroke-opacity="0.25" stroke-width="3"/><line x1="838.0" y1="232.6" x2="832.0" y2="222.2" stroke="#fff" stroke-opacity="0.25" stroke-width="3"/><line x1="900" y1="340" x2="960" y2="310" stroke="#ecb978" stroke-width="6" stroke-linecap="round"/><line x1="900" y1="340" x2="900" y2="245" stroke="#fff" stroke-opacity="0.7" stroke-width="4" stroke-linecap="round"/><circle cx="900" cy="340" r="9" fill="#ecb978"/><rect x="170" y="600" width="120" height="34" rx="8" fill="#E0A458" opacity="0.9"/><rect x="312" y="600" width="80" height="34" rx="8" fill="#E0A458" opacity="0.5"/><rect x="414" y="600" width="160" height="34" rx="8" fill="#E0A458" opacity="0.9"/><rect x="596" y="600" width="60" height="34" rx="8" fill="#E0A458" opacity="0.5"/><rect x="678" y="600" width="110" height="34" rx="8" fill="#E0A458" opacity="0.9"/><rect x="810" y="600" width="90" height="34" rx="8" fill="#E0A458" opacity="0.5"/><line x1="150" y1="658" x2="760" y2="658" stroke="#fff" stroke-opacity="0.16" stroke-width="2"/><line x1="170" y1="653" x2="170" y2="663" stroke="#fff" stroke-opacity="0.2" stroke-width="2"/><line x1="265" y1="653" x2="265" y2="663" stroke="#fff" stroke-opacity="0.2" stroke-width="2"/><line x1="360" y1="653" x2="360" y2="663" stroke="#fff" stroke-opacity="0.2" stroke-width="2"/><line x1="455" y1="653" x2="455" y2="663" stroke="#fff" stroke-opacity="0.2" stroke-width="2"/><line x1="550" y1="653" x2="550" y2="663" stroke="#fff" stroke-opacity="0.2" stroke-width="2"/><line x1="645" y1="653" x2="645" y2="663" stroke="#fff" stroke-opacity="0.2" stroke-width="2"/><line x1="740" y1="653" x2="740" y2="663" stroke="#fff" stroke-opacity="0.2" stroke-width="2"/>
<rect width="1280" height="800" fill="url(#vig)"/>
</svg>